
<svg fill="#1D4D62" height="200" width="200" xmlns="http://www.w3.org/2000/svg" viewBox="0 0 392.39 392.39" xml:space="preserve"><path d="M296.98 0H146.09c-8.4 0-16.29 3.23-22.24 9.18l-50.94 51a31.19 31.19 0 0 0-9.18 22.24v237.39a31.59 31.59 0 0 0 31.55 31.54h59.41v30.32c1.49 12.8 13.7 11.38 17 9.05l24.5-16.48 24.5 16.48c4.98 3.17 16.62 2.65 17-9.05v-30.32h59.42a31.59 31.59 0 0 0 31.54-31.54V31.48A31.77 31.77 0 0 0 296.98 0zM126.7 37.24v25.79h-25.8l25.8-25.8zm88.95 323.88-13.5-9.06c-1.88-1.22-4.02-1.87-6.15-1.87-2.07 0-4.27.65-6.08 1.87l-13.57 9.12V311a80.88 80.88 0 0 0 39.3 0v50.1zm-19.59-69.44c-24.17 0-44.86-14.93-53.52-36h17.45c6.01 0 10.93-4.85 10.93-10.93s-4.85-10.92-10.93-10.92h-21.78v-.07c0-6.79 1.22-13.32 3.42-19.33h44.22a10.91 10.91 0 1 0 0-21.85h-30.38a57.58 57.58 0 0 1 40.66-16.74 57.93 57.93 0 0 1 57.86 57.86c-.07 32.06-26 57.99-57.93 57.99zm111 28.13h-.32c0 5.3-4.33 9.63-9.63 9.63H237.7V301.5c22.88-13.96 38.27-39.18 38.27-67.81 0-43.96-35.75-79.65-79.65-79.65-43.96 0-79.64 35.75-79.64 79.65 0 28.76 15.39 53.91 38.27 67.94v27.8h-59.4a9.66 9.66 0 0 1-9.64-9.63v-235H138c6.02 0 10.93-4.84 10.93-10.92V21.72h148.49c5.3 0 9.63 4.33 9.63 9.63v288.46z"/><path d="M276.42 111.97H115.71a10.91 10.91 0 0 0-10.93 10.92c0 6.08 4.85 10.93 10.93 10.93h160.71c6.01 0 10.93-4.85 10.93-10.93 0-6.07-4.98-10.92-10.93-10.92zM276.42 55.53h-94.64a10.91 10.91 0 0 0-10.93 10.93c0 6.07 4.85 10.92 10.93 10.92h94.64c6.01 0 10.93-4.85 10.93-10.92 0-6.08-4.98-10.93-10.93-10.93z"/></svg>